<svg xmlns="http://www.w3.org/2000/svg" viewBox="0 0 1440 320" preserveAspectRatio="none">
  <defs>
    <linearGradient id="grad1" x1="0%" y1="0%" x2="100%" y2="0%">
      <stop offset="0%" style="stop-color:#0099ff;stop-opacity:1" />
      <stop offset="100%" style="stop-color:#a033ff;stop-opacity:1" />
    </linearGradient>
    <linearGradient id="grad2" x1="0%" y1="0%" x2="100%" y2="0%">
        <stop offset="0%" style="stop-color:#00c6ff;stop-opacity:1" />
        <stop offset="100%" style="stop-color:#0072ff;stop-opacity:1" />
    </linearGradient>
  </defs>

  <!-- Background Wave (Slower, lighter) -->
  <path fill="url(#grad2)" fill-opacity="0.3" d="M0,160L48,165.3C96,171,192,181,288,197.3C384,213,480,235,576,218.7C672,203,768,149,864,149.3C960,149,1056,203,1152,202.7C1248,203,1344,149,1392,122.7L1440,96L1440,320L1392,320C1344,320,1248,320,1152,320C1056,320,960,320,864,320C768,320,672,320,576,320C480,320,384,320,288,320C192,320,96,320,48,320L0,320Z">
       <animate attributeName="d" 
               dur="7s" 
               repeatCount="indefinite"
               values="M0,160L48,165.3C96,171,192,181,288,197.3C384,213,480,235,576,218.7C672,203,768,149,864,149.3C960,149,1056,203,1152,202.7C1248,203,1344,149,1392,122.7L1440,96L1440,320L1392,320C1344,320,1248,320,1152,320C1056,320,960,320,864,320C768,320,672,320,576,320C480,320,384,320,288,320C192,320,96,320,48,320L0,320Z;
                       M0,224L48,213.3C96,203,192,181,288,170.7C384,160,480,160,576,176C672,192,768,224,864,229.3C960,235,1056,213,1152,192C1248,171,1344,149,1392,138.7L1440,128L1440,320L1392,320C1344,320,1248,320,1152,320C1056,320,960,320,864,320C768,320,672,320,576,320C480,320,384,320,288,320C192,320,96,320,48,320L0,320Z;
                       M0,160L48,165.3C96,171,192,181,288,197.3C384,213,480,235,576,218.7C672,203,768,149,864,149.3C960,149,1056,203,1152,202.7C1248,203,1344,149,1392,122.7L1440,96L1440,320L1392,320C1344,320,1248,320,1152,320C1056,320,960,320,864,320C768,320,672,320,576,320C480,320,384,320,288,320C192,320,96,320,48,320L0,320Z"/>
  </path>

  <!-- Foreground Wave (Faster, vibrant) -->
  <path fill="url(#grad1)" fill-opacity="1" d="M0,128L48,122.7C96,117,192,107,288,90.7C384,75,480,53,576,69.3C672,85,768,139,864,138.7C960,139,1056,85,1152,85.3C1248,85,1344,139,1392,165.3L1440,192L1440,320L1392,320C1344,320,1248,320,1152,320C1056,320,960,320,864,320C768,320,672,320,576,320C480,320,384,320,288,320C192,320,96,320,48,320L0,320Z">
     <animate attributeName="d" 
             dur="5s" 
             repeatCount="indefinite"
             values="M0,128L48,122.7C96,117,192,107,288,90.7C384,75,480,53,576,69.3C672,85,768,139,864,138.7C960,139,1056,85,1152,85.3C1248,85,1344,139,1392,165.3L1440,192L1440,320L1392,320C1344,320,1248,320,1152,320C1056,320,960,320,864,320C768,320,672,320,576,320C480,320,384,320,288,320C192,320,96,320,48,320L0,320Z;
                     M0,160L48,144C96,128,192,96,288,96C384,96,480,128,576,144C672,160,768,160,864,144C960,128,1056,96,1152,90.7C1248,85,1344,107,1392,117.3L1440,128L1440,320L1392,320C1344,320,1248,320,1152,320C1056,320,960,320,864,320C768,320,672,320,576,320C480,320,384,320,288,320C192,320,96,320,48,320L0,320Z;
                     M0,128L48,122.7C96,117,192,107,288,90.7C384,75,480,53,576,69.3C672,85,768,139,864,138.7C960,139,1056,85,1152,85.3C1248,85,1344,139,1392,165.3L1440,192L1440,320L1392,320C1344,320,1248,320,1152,320C1056,320,960,320,864,320C768,320,672,320,576,320C480,320,384,320,288,320C192,320,96,320,48,320L0,320Z"/>
  </path>
</svg>
