<svg xmlns="http://www.w3.org/2000/svg" viewBox="0 0 1440 320" preserveAspectRatio="none">
  <defs>
    <linearGradient id="grad1" x1="0%" y1="0%" x2="100%" y2="0%">
      <stop offset="0%" style="stop-color:#0099ff;stop-opacity:1" />
      <stop offset="100%" style="stop-color:#a033ff;stop-opacity:1" />
    </linearGradient>
    <linearGradient id="grad2" x1="0%" y1="0%" x2="100%" y2="0%">
        <stop offset="0%" style="stop-color:#00c6ff;stop-opacity:1" />
        <stop offset="100%" style="stop-color:#0072ff;stop-opacity:1" />
    </linearGradient>
  </defs>
  
  <!-- Background Wave (Slower, lighter) -->
  <path fill="url(#grad2)" fill-opacity="0.3" d="M0,160L48,170.7C96,181,192,203,288,197.3C384,192,480,160,576,144C672,128,768,128,864,144C960,160,1056,192,1152,197.3C1248,203,1344,181,1392,170.7L1440,160L1440,0L1392,0C1344,0,1248,0,1152,0C1056,0,960,0,864,0C768,0,672,0,576,0C480,0,384,0,288,0C192,0,96,0,48,0L0,0Z">
      <animate attributeName="d" 
               dur="7s" 
               repeatCount="indefinite"
               values="M0,160L48,170.7C96,181,192,203,288,197.3C384,192,480,160,576,144C672,128,768,128,864,144C960,160,1056,192,1152,197.3C1248,203,1344,181,1392,170.7L1440,160L1440,0L1392,0C1344,0,1248,0,1152,0C1056,0,960,0,864,0C768,0,672,0,576,0C480,0,384,0,288,0C192,0,96,0,48,0L0,0Z;
                       M0,192L48,186.7C96,181,192,171,288,170.7C384,171,480,181,576,192C672,203,768,213,864,208C960,203,1056,181,1152,170.7C1248,160,1344,160,1392,160L1440,160L1440,0L1392,0C1344,0,1248,0,1152,0C1056,0,960,0,864,0C768,0,672,0,576,0C480,0,384,0,288,0C192,0,96,0,48,0L0,0Z;
                       M0,160L48,170.7C96,181,192,203,288,197.3C384,192,480,160,576,144C672,128,768,128,864,144C960,160,1056,192,1152,197.3C1248,203,1344,181,1392,170.7L1440,160L1440,0L1392,0C1344,0,1248,0,1152,0C1056,0,960,0,864,0C768,0,672,0,576,0C480,0,384,0,288,0C192,0,96,0,48,0L0,0Z"/>
  </path>

  <!-- Foreground Wave (Faster, vibrant) -->
  <path fill="url(#grad1)" fill-opacity="1" d="M0,192L48,197.3C96,203,192,213,288,229.3C384,245,480,267,576,250.7C672,235,768,181,864,181.3C960,181,1056,235,1152,234.7C1248,235,1344,181,1392,154.7L1440,128L1440,0L1392,0C1344,0,1248,0,1152,0C1056,0,960,0,864,0C768,0,672,0,576,0C480,0,384,0,288,0C192,0,96,0,48,0L0,0Z">
      <animate attributeName="d" 
               dur="5s" 
               repeatCount="indefinite"
               values="M0,192L48,197.3C96,203,192,213,288,229.3C384,245,480,267,576,250.7C672,235,768,181,864,181.3C960,181,1056,235,1152,234.7C1248,235,1344,181,1392,154.7L1440,128L1440,0L1392,0C1344,0,1248,0,1152,0C1056,0,960,0,864,0C768,0,672,0,576,0C480,0,384,0,288,0C192,0,96,0,48,0L0,0Z;
                       M0,160L48,176C96,192,192,224,288,224C384,224,480,192,576,176C672,160,768,160,864,176C960,192,1056,224,1152,229.3C1248,235,1344,213,1392,202.7L1440,192L1440,0L1392,0C1344,0,1248,0,1152,0C1056,0,960,0,864,0C768,0,672,0,576,0C480,0,384,0,288,0C192,0,96,0,48,0L0,0Z;
                       M0,192L48,197.3C96,203,192,213,288,229.3C384,245,480,267,576,250.7C672,235,768,181,864,181.3C960,181,1056,235,1152,234.7C1248,235,1344,181,1392,154.7L1440,128L1440,0L1392,0C1344,0,1248,0,1152,0C1056,0,960,0,864,0C768,0,672,0,576,0C480,0,384,0,288,0C192,0,96,0,48,0L0,0Z"/>
  </path>
</svg>
